<svg width="400" height="400" viewBox="0 0 400 400" fill="none" xmlns="http://www.w3.org/2000/svg">
<g clip-path="url(#clip0_34_2)">
<g filter="url(#filter0_bd_34_2)">
<path d="M61.9999 140.346C61.9999 139.794 62.4476 139.346 62.9999 139.346L337.48 139.346C338.033 139.346 338.48 139.794 338.48 140.346L338.48 199.141C338.48 199.694 338.033 200.141 337.48 200.141L62.9999 200.141C62.4476 200.141 61.9999 199.694 61.9999 199.141L61.9999 140.346ZM61.9999 304.099C61.9999 303.767 62.1656 303.455 62.4419 303.27L178.397 225.285C179.061 224.838 179.955 225.314 179.955 226.115L179.955 290.444C179.955 290.769 179.797 291.074 179.531 291.262L63.5756 372.891C62.9131 373.357 61.9999 372.883 61.9999 372.073L61.9999 304.099ZM149.903 184.83C149.903 184.278 150.35 183.83 150.903 183.83L197.362 183.83C197.914 183.83 198.362 184.278 198.362 184.83L198.362 250.557C198.362 259.453 200.115 267.115 203.621 273.54C207.378 280.213 212.512 285.279 219.023 288.739C225.785 292.446 233.548 294.299 242.313 294.299C251.079 294.299 258.717 292.446 265.228 288.739C271.99 285.279 277.124 280.213 280.63 273.54C284.386 267.115 286.265 259.453 286.265 250.557L286.265 184.83C286.265 184.278 286.712 183.83 287.265 183.83L337.48 183.83C338.033 183.83 338.48 184.278 338.48 184.83L338.48 245.738C338.48 268.227 334.974 287.75 327.962 304.308C321.2 320.866 311.058 333.594 297.534 342.49C284.011 351.387 266.981 355.836 246.446 355.836L240.435 355.836C220.15 355.836 203.245 351.264 189.722 342.12C176.449 333.223 166.431 320.496 159.67 303.938C153.158 287.627 149.903 268.227 149.903 245.738L149.903 184.83Z" fill="white"/>
<path d="M120.024 39C120.024 31.268 126.292 25 134.024 25L173.266 25C180.998 25 187.266 31.268 187.266 39L187.266 76.2434C187.266 83.9754 180.998 90.2434 173.266 90.2434L134.024 90.2434C126.292 90.2434 120.024 83.9753 120.024 76.2434L120.024 39ZM245.117 39C245.117 31.268 251.385 25 259.117 25L298.358 25C306.09 25 312.358 31.268 312.358 39L312.358 76.2434C312.358 83.9753 306.09 90.2434 298.358 90.2434L259.116 90.2434C251.385 90.2434 245.117 83.9753 245.117 76.2434L245.117 39Z" fill="white"/>
</g>
</g>
<defs>
<filter id="filter0_bd_34_2" x="30.7" y="-2.3" width="339.08" height="410.675" filterUnits="userSpaceOnUse" color-interpolation-filters="sRGB">
<feFlood flood-opacity="0" result="BackgroundImageFix"/>
<feGaussianBlur in="BackgroundImageFix" stdDeviation="11.65"/>
<feComposite in2="SourceAlpha" operator="in" result="effect1_backgroundBlur_34_2"/>
<feColorMatrix in="SourceAlpha" type="matrix" values="0 0 0 0 0 0 0 0 0 0 0 0 0 0 0 0 0 0 127 0" result="hardAlpha"/>
<feOffset dy="4"/>
<feGaussianBlur stdDeviation="15.65"/>
<feComposite in2="hardAlpha" operator="out"/>
<feColorMatrix type="matrix" values="0 0 0 0 0 0 0 0 0 0 0 0 0 0 0 0 0 0 0.25 0"/>
<feBlend mode="normal" in2="effect1_backgroundBlur_34_2" result="effect2_dropShadow_34_2"/>
<feBlend mode="normal" in="SourceGraphic" in2="effect2_dropShadow_34_2" result="shape"/>
</filter>
<clipPath id="clip0_34_2">
<rect width="400" height="400" fill="white"/>
</clipPath>
</defs>
</svg>
